# xmcd
#
# Track frame offsets:
#	150
#	13501
#	26795
#	39832
#	50042
#	62871
#	74493
#	86814
#	96156
#	110925
#	124293
#	138838
#	148099
#	160036
#	176358
#	187841
#	199560
#
# Disc length: 2805
#
# Revision: 2
# Processed by: cddbd v1.5.1PL0 Copyright (c) Steve Scherf et al.
# Submitted via: dBpowerAMP V4.0
# Normalized: r0:TSWAP
#
DISCID=f20af311
DTITLE=Various Artist - Country Hits 3 of 4
DYEAR=1900
DGENRE=Country
TTITLE0=Lynn Anderson - Rose Garden
TTITLE1=Kenny Rogers and First Edition - Ruby Don't Take your Love To Town
TTITLE2=Freddy Fender - Wasted Days Wasted nights
TTITLE3=Faron Young - Hello Walls
TTITLE4=Kitty Wells - Makin' Believe
TTITLE5=Johnny Paycheck - Take This Job and Shove it
TTITLE6=Dolly Parton - Letter To heaven
TTITLE7=Willie Nelson - One Step Beyond
TTITLE8=Don Gibson - Woman
TTITLE9=Donna Fargo - Somebody Special
TTITLE10=Mickey Gilley - I'll make it all Up To you
TTITLE11=Frankie laine - Rawhide
TTITLE12=Jack Greene - All The Time
TTITLE13=Lynn Anderson - Devil Went Down To Georgia
TTITLE14=Kitty Wells - Heartbreak USA
TTITLE15=Kenny Rogers and First Edition - Me and bobby McGee
TTITLE16=Willie Nelson - Blame It On The Times
EXTD=
EXTT0=
EXTT1=
EXTT2=
EXTT3=
EXTT4=
EXTT5=
EXTT6=
EXTT7=
EXTT8=
EXTT9=
EXTT10=
EXTT11=
EXTT12=
EXTT13=
EXTT14=
EXTT15=
EXTT16=
PLAYORDER=
